<?xml version="1.0" standalone="no"?>
<!DOCTYPE svg PUBLIC "-//W3C//DTD SVG 20010904//EN"
 "http://www.w3.org/TR/2001/REC-SVG-20010904/DTD/svg10.dtd">
<svg version="1.0" xmlns="http://www.w3.org/2000/svg"
 width="1024.000000pt" height="1024.000000pt" viewBox="0 0 1024.000000 1024.000000"
 preserveAspectRatio="xMidYMid meet">

<g transform="translate(0.000000,1024.000000) scale(0.100000,-0.100000)"
fill="#000000" stroke="none">
<path d="M4894 8430 c-681 -61 -1316 -441 -1698 -1014 -261 -394 -385 -910
-335 -1397 60 -586 366 -1272 1069 -2399 54 -85 211 -335 350 -555 320 -507
585 -936 729 -1182 62 -106 116 -193 121 -193 4 0 35 48 70 108 195 332 460
766 780 1272 496 786 739 1199 941 1600 335 669 469 1111 470 1560 1 671 -283
1257 -821 1696 -322 262 -711 428 -1143 489 -130 18 -412 26 -533 15z m571
-640 c234 -50 468 -155 646 -289 442 -333 675 -844 638 -1402 -13 -211 -64
-399 -155 -580 -95 -190 -298 -451 -339 -435 -16 6 -13 13 31 59 147 154 257
335 341 562 9 22 19 49 24 60 10 24 24 93 47 230 39 234 10 540 -73 760 -107
287 -297 543 -535 722 -122 92 -396 233 -452 233 -9 0 -19 4 -22 9 -3 5 -16
11 -28 14 -13 2 -68 15 -123 28 -89 21 -125 24 -325 24 -229 0 -298 -8 -460
-52 -127 -34 -334 -129 -425 -194 -22 -16 -62 -45 -90 -64 -121 -84 -289 -267
-380 -413 -44 -71 -135 -252 -135 -269 0 -5 -7 -23 -15 -40 -17 -34 -65 -217
-65 -248 0 -26 -18 -45 -42 -45 -25 0 -23 33 8 155 68 269 211 520 411 722
246 247 537 401 882 463 150 27 488 22 636 -10z m-160 -245 c246 -18 540 -157
750 -353 259 -243 404 -560 422 -922 15 -302 -91 -621 -291 -875 -51 -65 -134
-151 -168 -176 l-27 -20 -83 52 c-177 111 -361 253 -739 570 -357 299 -498
389 -750 483 -137 51 -327 93 -559 124 l-55 8 3 39 c1 22 16 83 32 135 158
516 635 902 1160 939 104 8 147 7 305 -4z m-1758 -1425 c30 -303 86 -477 235
-730 100 -171 292 -365 477 -481 86 -55 202 -118 236 -129 22 -7 56 -21 75
-30 19 -10 82 -29 140 -43 58 -14 130 -31 160 -39 85 -20 432 -17 540 5 177
36 328 90 478 169 53 28 102 57 109 64 19 19 54 27 65 16 22 -22 -242 -162
-406 -216 -396 -131 -861 -102 -1245 75 -270 125 -531 353 -693 605 -83 129
-170 346 -202 506 -17 82 -38 327 -29 341 3 5 15 7 26 5 20 -3 23 -12 34 -118z
m413 54 c278 -43 520 -125 697 -236 92 -58 298 -213 407 -306 333 -286 483
-405 654 -521 59 -40 62 -44 45 -56 -55 -38 -207 -99 -333 -132 -117 -31 -369
-43 -502 -23 -572 82 -1049 560 -1127 1130 -24 180 -25 173 23 165 17 -2 78
-12 136 -21z"/>
<path d="M5268 7314 c-3 -5 -9 -25 -13 -44 -4 -19 -32 -84 -61 -144 -56 -113
-63 -150 -44 -215 32 -112 170 -133 230 -36 18 29 24 53 24 99 0 62 -10 89
-74 201 -13 22 -31 64 -40 94 -9 30 -19 50 -22 45z"/>
<path d="M5828 7087 c-183 -94 -341 -216 -488 -376 -47 -50 -88 -91 -91 -91
-4 0 -12 15 -19 33 -33 81 -142 206 -273 311 -64 51 -77 55 -77 26 0 -10 -5
-30 -11 -44 -11 -24 -8 -30 60 -92 102 -94 177 -211 226 -351 l19 -53 61 0 61
0 79 113 c44 61 106 142 138 179 73 86 305 300 375 346 28 19 52 36 52 38 0
12 -40 -1 -112 -39z"/>
</g>
</svg>
