<?xml version="1.0" standalone="no"?>
<!DOCTYPE svg PUBLIC "-//W3C//DTD SVG 20010904//EN"
 "http://www.w3.org/TR/2001/REC-SVG-20010904/DTD/svg10.dtd">
<svg version="1.0" xmlns="http://www.w3.org/2000/svg"
 width="1024.000000pt" height="1024.000000pt" viewBox="0 0 1024.000000 1024.000000"
 preserveAspectRatio="xMidYMid meet">

<g transform="translate(0.000000,1024.000000) scale(0.100000,-0.100000)"
fill="#000000" stroke="none">
<path d="M4830 8363 c-73 -5 -239 -33 -325 -54 -439 -110 -789 -309 -1095
-625 -187 -193 -310 -367 -421 -599 -101 -211 -160 -401 -196 -627 -25 -156
-24 -486 1 -653 49 -325 170 -689 360 -1080 151 -310 281 -537 644 -1115 579
-922 820 -1313 1163 -1889 41 -69 79 -126 85 -128 5 -2 21 16 34 39 58 105
455 762 635 1053 939 1513 1161 1904 1339 2361 174 449 246 809 232 1164 -13
344 -95 654 -248 940 -328 611 -892 1034 -1558 1170 -223 45 -433 59 -650 43z
m361 -613 c208 -20 366 -67 564 -165 440 -219 762 -637 866 -1125 20 -89 23
-136 23 -310 0 -175 -3 -220 -22 -307 -62 -285 -206 -561 -395 -756 -40 -40
-52 -51 -27 -23 155 172 254 339 337 561 9 22 19 49 24 60 10 24 24 93 47 230
39 234 10 540 -73 760 -107 287 -297 543 -535 722 -122 92 -396 233 -452 233
-9 0 -19 4 -22 9 -3 5 -16 11 -28 14 -13 2 -68 15 -123 28 -89 21 -125 24
-325 24 -229 0 -298 -8 -460 -52 -127 -34 -334 -129 -425 -194 -22 -16 -62
-45 -90 -64 -121 -84 -289 -267 -380 -413 -44 -71 -135 -252 -135 -269 0 -5
-7 -23 -15 -40 -17 -35 -65 -217 -65 -249 0 -23 -26 -51 -37 -41 -8 9 24 165
53 255 35 108 142 322 208 417 201 291 499 515 834 625 214 70 423 93 653 70z
m24 -285 c246 -18 540 -157 750 -353 259 -243 404 -560 422 -922 15 -302 -91
-621 -291 -875 -51 -65 -134 -151 -168 -176 l-27 -20 -83 52 c-177 111 -361
253 -739 570 -357 299 -498 389 -750 483 -137 51 -327 93 -559 124 l-55 8 3
39 c1 22 16 83 32 135 158 516 635 902 1160 939 104 8 147 7 305 -4z m-1758
-1426 c30 -303 86 -476 235 -729 35 -59 138 -192 197 -253 108 -113 225 -200
399 -298 105 -59 88 -59 -24 0 -124 65 -234 145 -346 250 -300 282 -470 642
-495 1050 -5 87 -4 103 8 99 10 -3 17 -37 26 -119z m413 55 c278 -43 520 -125
697 -236 92 -58 298 -213 407 -306 333 -286 483 -405 654 -521 59 -40 62 -44
45 -56 -55 -38 -207 -99 -333 -132 -117 -31 -369 -43 -502 -23 -572 82 -1049
560 -1127 1130 -24 180 -25 173 23 165 17 -2 78 -12 136 -21z m2075 -1254 c-9
-15 -45 -32 -45 -22 0 5 10 14 23 20 29 14 29 14 22 2z m-75 -45 c0 -2 -13
-11 -30 -20 -38 -19 -40 -11 -2 9 31 17 32 18 32 11z m-70 -39 c0 -2 -7 -7
-16 -10 -8 -3 -12 -2 -9 4 6 10 25 14 25 6z m-40 -20 c0 -2 -7 -7 -16 -10 -8
-3 -12 -2 -9 4 6 10 25 14 25 6z m-1315 -51 c17 -8 23 -13 15 -13 -8 0 -33 8
-55 19 -43 20 -10 15 40 -6z m1195 -5 c-8 -5 -19 -10 -25 -10 -5 0 -3 5 5 10
8 5 20 10 25 10 6 0 3 -5 -5 -10z m-133 -46 c-3 -3 -12 -4 -19 -1 -8 3 -5 6 6
6 11 1 17 -2 13 -5z m-880 -10 c-3 -3 -12 -4 -19 -1 -8 3 -5 6 6 6 11 1 17 -2
13 -5z"/>
<path d="M5178 7234 c-3 -5 -9 -25 -13 -44 -4 -19 -32 -84 -61 -144 -56 -113
-63 -150 -44 -215 32 -112 170 -133 230 -36 18 29 24 53 24 99 0 62 -10 89
-74 201 -13 22 -31 64 -40 94 -9 30 -19 50 -22 45z"/>
<path d="M5738 7007 c-183 -94 -341 -216 -488 -376 -47 -50 -88 -91 -91 -91
-4 0 -12 15 -19 33 -33 81 -142 206 -273 311 -64 51 -77 55 -77 26 0 -10 -5
-30 -11 -44 -11 -24 -8 -30 60 -92 102 -94 177 -211 226 -351 l19 -53 61 0 61
0 79 113 c44 61 106 142 138 179 73 86 305 300 375 346 28 19 52 36 52 38 0
12 -40 -1 -112 -39z"/>
</g>
</svg>
